<?xml version="1.0" encoding="utf-8"?>
<!-- Generator: Adobe Illustrator 25.1.0, SVG Export Plug-In . SVG Version: 6.00 Build 0)  -->
<svg version="1.1" id="Layer_1" xmlns="http://www.w3.org/2000/svg" xmlns:xlink="http://www.w3.org/1999/xlink" x="0px" y="0px"
	 viewBox="0 0 500 100" style="enable-background:new 0 0 500 100;" xml:space="preserve">
<style type="text/css">
	.st0{fill:#19212B;}
</style>
<g>
	<g>
		<g>
			<g>
				<path class="st0" d="M25.95,42.53L17.4,23.32c-4.83,4.03-7.9,10.09-7.9,16.87c0,12.14,9.84,21.98,21.98,21.98
					c1.06,0,2.1-0.08,3.12-0.22l-8.53-19.16C26.03,42.7,25.99,42.62,25.95,42.53z M31.48,6.2c-2.8,0-5.53,0.34-8.13,0.98l5.01,11.26
					c1.02-0.14,2.07-0.22,3.12-0.22c12.14,0,21.98,9.84,21.98,21.98c0,6.78-3.07,12.84-7.9,16.88l5.01,11.25
					c9-6.11,14.91-16.43,14.91-28.13C65.47,21.42,50.25,6.2,31.48,6.2z"/>
			</g>
		</g>
		<g>
			<path class="st0" d="M115.76,47.1h-16.3l-2.67,5.88h-6.37l13.99-31.18h6.41l13.99,31.18h-6.41L115.76,47.1z M107.61,28.35
				l-5.79,13.27h11.58L107.61,28.35z"/>
			<path class="st0" d="M139.95,43.81v5.81c0,1.86-1.51,3.37-3.37,3.37h-2.51V21.8c4.85,0,9.84-0.04,14.7-0.04
				c15.32,0,15.37,21.91,0,22.05H139.95z M139.95,38.42h8.82c7.53,0,7.48-11.05,0-11.05h-8.82V38.42z"/>
			<path class="st0" d="M176.38,43.81v5.81c0,1.86-1.51,3.37-3.37,3.37h-2.51V21.8c4.85,0,9.84-0.04,14.7-0.04
				c15.32,0,15.37,21.91,0,22.05H176.38z M176.38,38.42h8.82c7.53,0,7.48-11.05,0-11.05h-8.82V38.42z"/>
			<path class="st0" d="M234.77,37.12c0.13,7.88-4.68,15.86-15.59,15.86c-3.83,0-8.42,0-12.25,0V21.8c3.83,0,8.42,0,12.25,0
				C229.87,21.8,234.63,29.42,234.77,37.12z M212.76,47.33h6.41c7.08,0,9.89-5.17,9.75-10.25c-0.13-4.85-2.98-9.71-9.75-9.71h-6.41
				V47.33z"/>
			<path class="st0" d="M255.21,34.68l8.28-12.87h7.08v0.27l-12.43,18.04v9.51c0,1.86-1.51,3.37-3.37,3.37h-2.51V40.11l-11.98-18.04
				V21.8h6.99L255.21,34.68z"/>
			<path class="st0" d="M300.6,42.78V25.17c0-1.86,1.51-3.37,3.37-3.37h2.51v31.18h-4.77l-16.57-20.76v17.39
				c0,1.86-1.51,3.37-3.37,3.37h-2.51V21.8h4.77L300.6,42.78z"/>
			<path class="st0" d="M341.09,47.1h-16.3l-2.67,5.88h-6.37l13.99-31.18h6.41l13.99,31.18h-6.41L341.09,47.1z M332.94,28.35
				l-5.79,13.27h11.58L332.94,28.35z"/>
			<path class="st0" d="M386.51,30.4l-10.15,13.54h-1.16l-9.93-13.59v19.31c0,1.86-1.51,3.37-3.37,3.37h-2.51V21.85h6.77l9.75,13.41
				l9.75-13.41h6.73v27.81c0,1.86-1.51,3.37-3.37,3.37h-2.51V30.4z"/>
			<path class="st0" d="M405.58,52.98V25.17c0-1.86,1.51-3.37,3.37-3.37h2.47v27.81c0,1.86-1.51,3.37-3.37,3.37H405.58z"/>
			<path class="st0" d="M450.47,49.06c-3.21,3.16-7.35,4.63-11.85,4.63c-11.58,0-16.48-7.97-16.52-16.08
				c-0.04-8.15,5.26-16.43,16.52-16.43c4.23,0,8.24,1.6,11.45,4.77l-3.92,3.79c-2.05-2-4.81-2.94-7.53-2.94
				c-7.53,0-10.78,5.61-10.73,10.82c0.04,5.17,3.03,10.56,10.73,10.56c2.72,0,5.79-1.11,7.84-3.16L450.47,49.06z"/>
			<path class="st0" d="M478.97,29.4c-1.05-1.79-3.98-3.51-7.36-3.54c-4.36-0.04-6.47,1.77-6.49,4.09c-0.02,2.72,3.18,3.5,6.91,3.98
				c6.5,0.86,12.54,2.6,12.47,10.04c-0.06,6.95-6.23,9.88-13.18,9.82c-6.37-0.06-11.25-2.06-13.52-7.78l4.92-2.5
				c1.35,3.44,4.94,5.1,8.73,5.13c3.7,0.03,7.18-1.34,7.21-4.72c0.03-2.94-3.04-4.17-7.17-4.65c-6.36-0.81-12.23-2.56-12.17-9.55
				c0.06-6.41,6.4-8.99,12.15-8.98c4.86,0.04,9.88,1.47,12.19,6.3L478.97,29.4z"/>
		</g>
	</g>
	<g>
		<path class="st0" d="M316.36,73.43h1.72l0.31,2.34c0.56-0.9,1.29-1.6,2.2-2.09c0.86-0.45,1.83-0.68,2.9-0.68
			c2.05,0,3.64,0.73,4.76,2.2c1.03,1.35,1.55,3.15,1.55,5.41c0,2.67-0.7,4.71-2.09,6.11c-1.16,1.18-2.64,1.77-4.42,1.77
			c-1.05,0-2-0.23-2.85-0.69s-1.51-1.12-2-1.99v7.32h-2.08V73.43z M327.6,80.56c0-2.03-0.49-3.55-1.46-4.56
			c-0.79-0.81-1.83-1.21-3.13-1.21c-1.43,0-2.57,0.53-3.44,1.6c-0.85,1.03-1.27,2.46-1.27,4.28c0,2.05,0.5,3.62,1.49,4.7
			c0.81,0.9,1.87,1.35,3.18,1.35c1.5,0,2.66-0.57,3.46-1.72C327.21,83.94,327.6,82.45,327.6,80.56z"/>
		<path class="st0" d="M335.13,77.37h-2.2c0.13-1.41,0.8-2.52,2-3.32c1.05-0.7,2.38-1.04,3.97-1.04c1.88,0,3.34,0.51,4.39,1.52
			c0.88,0.88,1.32,2.02,1.32,3.41v10.14h-1.72l-0.25-2.22c-1.15,1.77-2.84,2.65-5.07,2.65c-1.62,0-2.88-0.43-3.8-1.3
			c-0.79-0.75-1.18-1.71-1.18-2.87c0-1.41,0.49-2.5,1.47-3.27c0.88-0.7,2.25-1.2,4.11-1.52l4.37-0.73v-1.01
			c0-1.03-0.37-1.83-1.13-2.39c-0.64-0.49-1.5-0.73-2.59-0.73c-1.16,0-2.08,0.28-2.73,0.85C335.55,75.98,335.23,76.6,335.13,77.37z
			 M342.54,82.78v-2.31l-3.8,0.65c-1.56,0.28-2.64,0.69-3.24,1.24c-0.47,0.43-0.7,1.02-0.7,1.77c0,0.88,0.34,1.55,1.01,2
			c0.56,0.39,1.32,0.59,2.28,0.59c1.24,0,2.31-0.42,3.21-1.27C342.13,84.71,342.54,83.81,342.54,82.78z"/>
		<path class="st0" d="M351.03,88.08h-2.09V73.43h1.72l0.28,2.51c0.79-1.95,2.1-2.93,3.92-2.93c0.51,0,1.02,0.07,1.55,0.2v2.08
			c-0.6-0.17-1.14-0.25-1.63-0.25c-1.15,0-2.07,0.51-2.76,1.52c-0.66,0.96-0.99,2.24-0.99,3.83V88.08z"/>
		<path class="st0" d="M365.98,75.23h-3.3v9.61c0,1.22,0.58,1.83,1.75,1.83c0.54,0,1.12-0.07,1.72-0.22v1.77
			c-0.68,0.19-1.32,0.28-1.94,0.28c-1.24,0-2.17-0.38-2.79-1.13c-0.55-0.64-0.82-1.5-0.82-2.59v-9.55h-2.14v-1.8h2.14l0.14-3.52
			h1.94v3.52h3.3V75.23z"/>
		<path class="st0" d="M377.25,80.75c0-2.67,0.76-4.69,2.28-6.09c1.24-1.11,2.81-1.66,4.71-1.66c2.22,0,3.95,0.73,5.21,2.2
			c1.16,1.37,1.75,3.22,1.75,5.55c0,2.65-0.74,4.67-2.22,6.06c-1.22,1.13-2.8,1.69-4.73,1.69c-2.22,0-3.96-0.75-5.24-2.25
			C377.83,84.87,377.25,83.04,377.25,80.75z M379.42,80.75c0,2.05,0.53,3.62,1.58,4.71c0.85,0.88,1.93,1.32,3.27,1.32
			c1.54,0,2.73-0.58,3.58-1.75c0.79-1.05,1.18-2.48,1.18-4.28c0-2.08-0.51-3.66-1.52-4.73c-0.85-0.86-1.93-1.3-3.27-1.3
			c-1.54,0-2.74,0.57-3.61,1.72C379.82,77.51,379.42,78.95,379.42,80.75z"/>
		<path class="st0" d="M401.36,67.71v1.8c-0.81-0.22-1.54-0.34-2.2-0.34c-0.56,0-1,0.16-1.31,0.48c-0.31,0.32-0.46,0.78-0.46,1.38
			v2.39h3.3v1.8h-3.3v12.85h-2.08V75.23h-2.17v-1.8h2.17v-2.28c0-1.24,0.39-2.21,1.18-2.9c0.66-0.58,1.51-0.87,2.56-0.87
			C399.74,67.37,400.51,67.48,401.36,67.71z"/>
		<path class="st0" d="M421.11,88.5c-3.01,0-5.33-1.05-6.99-3.15c-1.48-1.86-2.22-4.3-2.22-7.32c0-3.59,0.99-6.34,2.99-8.26
			c1.65-1.6,3.77-2.39,6.34-2.39c2.44,0,4.47,0.72,6.09,2.14c1.37,1.24,2.16,2.77,2.37,4.59h-2.22c-0.26-1.63-1.03-2.88-2.28-3.75
			c-1.07-0.75-2.39-1.13-3.94-1.13c-2.27,0-4.05,0.85-5.32,2.54c-1.17,1.54-1.75,3.62-1.75,6.25c0,2.85,0.74,5.06,2.22,6.62
			c1.24,1.31,2.83,1.97,4.76,1.97c1.86,0,3.38-0.57,4.56-1.72c1.01-0.99,1.6-2.24,1.75-3.75h2.22c-0.19,2.2-1.14,4-2.85,5.41
			C425.24,87.85,423.34,88.5,421.11,88.5z"/>
		<path class="st0" d="M435.45,70.41h-2.39v-2.62h2.39V70.41z M435.31,88.08h-2.11V73.43h2.11V88.08z"/>
		<path class="st0" d="M448.49,84.16c0-0.81-0.32-1.42-0.96-1.84c-0.64-0.42-1.83-0.8-3.58-1.14c-1.73-0.36-2.98-0.89-3.75-1.6
			c-0.7-0.66-1.04-1.5-1.04-2.54c0-1.3,0.53-2.31,1.58-3.04c0.98-0.66,2.29-0.99,3.94-0.99c1.69,0,3.07,0.42,4.14,1.27
			c0.94,0.73,1.51,1.7,1.72,2.9h-2.14c-0.15-0.81-0.59-1.44-1.32-1.89c-0.66-0.41-1.47-0.62-2.45-0.62c-1.16,0-2.04,0.24-2.62,0.73
			c-0.47,0.38-0.7,0.86-0.7,1.44c0,0.71,0.27,1.26,0.8,1.63c0.53,0.38,1.52,0.7,2.94,0.99c2.05,0.41,3.48,0.97,4.31,1.66
			c0.85,0.69,1.27,1.66,1.27,2.9c0,1.39-0.59,2.5-1.78,3.32c-1.05,0.77-2.43,1.16-4.14,1.16c-1.88,0-3.37-0.46-4.48-1.38
			c-0.94-0.79-1.47-1.81-1.61-3.07h2.14c0.28,1.84,1.6,2.76,3.97,2.76c1.26,0,2.22-0.29,2.9-0.87
			C448.21,85.45,448.49,84.86,448.49,84.16z"/>
		<path class="st0" d="M464.13,83.57h2.25c-0.23,1.54-0.96,2.77-2.2,3.69c-1.13,0.83-2.47,1.24-4.03,1.24
			c-2.1,0-3.77-0.74-5.02-2.22c-1.13-1.35-1.69-3.16-1.69-5.41c0-2.63,0.72-4.66,2.14-6.08c1.18-1.18,2.7-1.78,4.56-1.78
			c1.75,0,3.18,0.47,4.31,1.41c0.99,0.83,1.61,1.9,1.83,3.21h-2.31c-0.19-0.96-0.66-1.69-1.41-2.2c-0.66-0.43-1.45-0.65-2.37-0.65
			c-1.46,0-2.6,0.57-3.41,1.72c-0.77,1.07-1.16,2.56-1.16,4.45c0,2.01,0.51,3.53,1.52,4.56c0.79,0.81,1.8,1.21,3.04,1.21
			c1.11,0,2.02-0.32,2.73-0.96C463.58,85.2,463.98,84.47,464.13,83.57z"/>
		<path class="st0" d="M469.15,80.75c0-2.67,0.76-4.69,2.28-6.09c1.24-1.11,2.81-1.66,4.7-1.66c2.22,0,3.95,0.73,5.21,2.2
			c1.16,1.37,1.75,3.22,1.75,5.55c0,2.65-0.74,4.67-2.22,6.06c-1.22,1.13-2.8,1.69-4.73,1.69c-2.22,0-3.96-0.75-5.24-2.25
			C469.73,84.87,469.15,83.04,469.15,80.75z M471.32,80.75c0,2.05,0.52,3.62,1.58,4.71c0.85,0.88,1.93,1.32,3.27,1.32
			c1.54,0,2.73-0.58,3.58-1.75c0.79-1.05,1.18-2.48,1.18-4.28c0-2.08-0.51-3.66-1.52-4.73c-0.85-0.86-1.93-1.3-3.27-1.3
			c-1.54,0-2.74,0.57-3.6,1.72C471.72,77.51,471.32,78.95,471.32,80.75z"/>
	</g>
</g>
</svg>
